HIERARCHY
ROOT Hip
{
	OFFSET 0 0 0
	CHANNELS 6 Xposition Yposition Zposition Zrotation Yrotation Xrotation
	JOINT ShoulderCenter
	{
		OFFSET 0 0.4363 0
		CHANNELS 3 Zrotation Yrotation Xrotation
		JOINT Head
		{
			OFFSET 0 0.1849 0
			CHANNELS 3 Zrotation Yrotation Xrotation
			End Site
			{
				OFFSET 0.0 0.0891 0.0
			}
		}
		JOINT ShoulderLeft
		{
			OFFSET -0.14 0 0
			CHANNELS 3 Zrotation Yrotation Xrotation
			JOINT ElbowLeft
			{
				OFFSET -0.25 0 0
				CHANNELS 3 Zrotation Yrotation Xrotation
				JOINT WristLeft
				{
					OFFSET -0.23 0 0
					CHANNELS 3 Zrotation Yrotation Xrotation
					End Site
					{
						OFFSET -0.0832 0.0 0.0
					}
				}
			}
		}
		JOINT ShoulderRight
		{
			OFFSET 0.14 0 0
			CHANNELS 3 Zrotation Yrotation Xrotation
			JOINT ElbowRight
			{
				OFFSET 0.25 0 0
				CHANNELS 3 Zrotation Yrotation Xrotation
				JOINT WristRight
				{
					OFFSET 0.23 0 0
					CHANNELS 3 Zrotation Yrotation Xrotation
					End Site
					{
						OFFSET 0.0832 0.0 0.0
					}
				}
			}
		}
	}
	JOINT HipLeft
	{
		OFFSET -0.0952 0 0
		CHANNELS 3 Zrotation Yrotation Xrotation
		JOINT KneeLeft
		{
			OFFSET 0 -0.3732 0
			CHANNELS 3 Zrotation Yrotation Xrotation
			JOINT AnkleLeft
			{
				OFFSET 0 -0.346 0
				CHANNELS 3 Zrotation Yrotation Xrotation
				End Site
				{
					OFFSET 0.0 0.0 0.0891
				}
			}
		}
	}
	JOINT HipRight
	{
		OFFSET 0.0952 0 0
		CHANNELS 3 Zrotation Yrotation Xrotation
		JOINT KneeRight
		{
			OFFSET 0 -0.3732 0
			CHANNELS 3 Zrotation Yrotation Xrotation
			JOINT AnkleRight
			{
				OFFSET 0 -0.346 0
				CHANNELS 3 Zrotation Yrotation Xrotation
				End Site
				{
					OFFSET 0.0 0.0 0.0891
				}
			}
		}
	}
}
MOTION
Frames: 27
Frame Time: 0.033333
2.86656e-05 -4.48277e-05 -0.00251596 -0.389102 -1.46273 -5.20584 0.899734 -2.14458 -4.70631 0 0 0 65.9054 -14.7939 47.5067 -3.076e-06 56.653 -5.53774e-06 1.01778e-13 3.41509e-06 3.41509e-06 -70.5445 13.659 47.4979 1.09705e-05 -53.0852 -1.66243e-06 0 0 0 0.579074 8.42617 0.397969 -14.531 -7.85228 -38.3383 0 0 0 1.10476 -1.5958 -0.0963428 -0.629271 4.9864 -43.1957 0 0 0 
2.56908e-05 -4.36118e-05 -0.00251606 -0.281013 -1.27534 -5.23064 0.972138 -2.16628 -4.6399 0 0 0 65.827 -15.3659 46.5879 -1.54381e-05 59.9637 -1.28494e-05 3.33505e-09 0 0 -68.8475 15.2356 46.3569 8.39822e-06 -58.6382 -8.63336e-06 -2.13443e-07 0 0 0.63915 8.75425 0.451677 -15.6454 -7.69922 -37.6237 0 0 0 1.10272 -2.72245 -0.10892 0.386443 6.95969 -43.0872 0 5.33609e-08 0 
2.14939e-05 -4.21887e-05 -0.00251621 -0.196297 -1.40376 -5.26902 0.273021 -2.00354 -4.54737 0 0 0 66.8801 -15.5802 45.9336 -6.41423e-06 60.6781 -7.71104e-06 0 0 0 -67.7908 15.5422 46.1125 7.92245e-06 -59.6752 -1.24181e-05 0 0 0 0.791093 8.34258 0.494905 -14.45 -8.14831 -37.8404 0 0 0 1.47873 -2.70142 -0.0407529 1.241 6.20026 -42.4586 0 0 0 
1.83487e-05 -4.21887e-05 -0.00251606 -0.165588 -1.29294 -5.34016 0.303047 -1.98678 -4.22312 2.66804e-08 4.16882e-10 -8.53774e-07 66.9356 -15.3977 45.8348 -8.27037e-06 60.9207 -8.82583e-06 0 -3.41509e-06 0 -66.9955 15.0246 46.8469 1.75981e-05 -60.4415 -1.42031e-05 0 0 0 1.06389 8.64117 0.582491 -14.9652 -8.21332 -37.8363 0 0 0 1.55977 -2.84768 0.0312189 1.19958 6.47162 -42.8523 0 0 0 
1.6214e-05 -4.21887e-05 -0.00251596 -0.159182 -1.19576 -5.48527 0.574069 -2.063 -3.80172 0 0 0 67.7139 -15.314 44.227 -9.64629e-06 59.0045 -9.382e-06 0 3.41509e-06 0 -66.9762 14.7462 46.8583 9.17433e-06 -60.0965 -9.25244e-06 0 0 -3.41509e-06 1.06783 -5.73236 0.785326 7.25159 9.75299 -38.777 0 0 0 1.68056 -1.62338 0.218689 -0.158757 4.93938 -41.6265 1.06722e-07 -5.33609e-08 3.41509e-06 
1.39949e-05 -4.34205e-05 -0.00251555 -0.0642101 -0.606366 -5.53247 0.419723 -2.61284 -3.71145 0 0 0 68.8733 -12.7869 45.2401 -3.21888e-06 54.7943 -5.51483e-06 0 5.33609e-08 0 -68.752 14.1058 45.9146 8.54024e-06 -56.9571 -7.4761e-07 0 0 0 1.06377 -7.60453 0.970632 12.6992 11.8019 -34.1236 3.24417e-12 4.26887e-07 -3.41509e-06 1.55406 -1.41286 0.344645 -0.285859 4.39987 -41.7919 -1.60083e-07 -5.33609e-08 3.33505e-09 
1.11424e-05 -4.49977e-05 -0.00251451 0.0828923 -0.0189789 -5.67171 0.0188915 -2.70371 -2.97779 0 0 0 71.0622 -8.61091 48.0576 5.28582e-06 49.1379 6.17165e-06 0 0 0 -73.8163 10.1964 43.4992 -1.43783e-06 -47.1295 6.27122e-07 0 -3.41509e-06 0 0.937675 -8.09267 1.17822 14.1511 13.0384 -32.0717 0 0 0 1.11497 -1.74601 0.511609 -0.605626 5.55076 -42.2038 0 0 0 
7.95672e-06 -4.58039e-05 -0.00251397 0.269515 0.297881 -5.57777 -0.356504 -2.24254 -2.24376 0 2.13443e-07 0 72.9196 -6.78863 47.4193 -1.28547e-05 46.4894 -1.80462e-06 0 0 0 -78.2456 7.57855 37.0081 -9.22195e-06 -42.0408 3.54374e-06 -9.85972e-14 -3.30837e-06 3.41509e-06 0.767255 -8.02426 1.11215 14.2033 13.2267 -31.5984 5.33608e-08 -1.2424e-17 2.66804e-08 1.0443 -1.67039 0.427266 -1.30801 5.94163 -42.7671 0 0 0 
7.12278e-06 -4.61895e-05 -0.00251381 0.334771 0.407713 -5.55623 -0.403336 -2.1265 -1.90857 0 0 0 73.2308 -6.71388 45.1994 8.76767e-06 45.5182 7.38168e-06 0 0 0 -78.6683 7.15039 36.0559 -3.58138e-06 -41.5892 -2.29301e-06 0 0 0 0.728745 -8.38071 1.07631 14.3077 13.7553 -32.027 0 0 0 1.01842 -1.64072 0.403596 -1.57596 6.07887 -43.0026 0 0 0 
5.63285e-07 -4.85579e-05 -0.00251367 1.32375 1.76408 -5.42565 -2.044 -2.0313 0.00236616 0 0 0 76.7316 -5.35025 33.0405 1.75719e-06 37.3073 -3.01125e-06 0 0 0 -78.2732 3.68066 28.6547 6.71357e-06 -31.3432 -3.65698e-06 0 0 0 -0.176512 -8.21948 1.01853 13.5976 13.6282 -32.7731 0 0 0 -0.0412839 -6.8327 0.017565 5.69705 12.383 -41.8861 0 0 0 
-2.36286e-06 -5.06356e-05 -0.00251356 1.49344 2.42573 -5.43275 -2.17924 -2.44846 1.01997 -8.33763e-10 0 0 78.0021 -3.14047 30.1814 -2.24545e-06 32.3961 -6.5228e-07 0 0 0 -78.0955 1.4944 29.701 -6.98789e-08 -27.4089 -1.74054e-06 0 0 0 -0.123758 -6.82775 1.12825 11.6111 11.6217 -33.3616 0 0 0 -0.170594 -6.42946 -0.0877816 5.94451 11.1009 -41.8469 -9.60495e-07 0 0 
-6.93974e-06 -5.2399e-05 -0.00251356 1.91102 3.44369 -5.4614 -2.42145 -2.98035 2.87688 0 0 0 79.8186 1.69407 13.9548 -1.426e-06 23.7189 -2.99452e-07 0 0 0 -78.4818 -1.43792 29.7745 5.00264 -21.0586 -1.95841 0 0 0 -0.307978 -6.63408 1.1786 10.5093 11.4726 -34.5902 0 0 0 -0.492838 -10.0251 -0.230406 10.6081 14.9543 -40.6487 0 0 0 
-9.5438e-06 -5.38513e-05 -0.00251367 1.96317 3.60474 -5.45736 -2.28334 -2.85543 3.44544 0 0 0 79.8891 2.6894 12.444 -6.57254e-07 22.6426 1.60985e-06 0 0 0 -78.5493 -2.34965 29.9396 5.10455 -20.5183 -2.03688 0 0 0 -0.180739 -7.09371 1.19818 10.3826 11.7194 -36.1186 0 0 0 -0.506765 -5.94377 -0.263418 6.08625 9.99421 -41.4426 0 0 0 
-1.56651e-05 -5.41379e-05 -0.00251379 2.34796 4.21322 -5.44884 -3.0665 -3.0919 4.69759 0 0 1.06722e-07 81.3347 3.7277 9.24525 2.07499e-06 22.5559 -1.32738e-06 0 0 0 -77.8401 -3.94505 29.9745 5.49965 -19.8371 -2.27415 0 0 0 -0.143903 -6.57819 1.09649 9.8829 11.2908 -35.6246 0 0 0 -1.0496 -6.35084 -0.43258 6.97431 10.2054 -41.1552 0 -4.26887e-07 0 
-1.89577e-05 -5.42991e-05 -0.00251398 2.51685 4.33133 -5.41928 -3.35735 -2.97439 5.31497 -2.08441e-10 7.58303e-22 4.16882e-10 81.5383 4.2772 8.95136 0.583198 22.0754 0.255859 0 0 0 -77.8563 -3.72017 30.0685 6.84702 -20.9778 -2.68392 0 0 0 -0.0367012 -6.68341 1.05514 8.5917 11.4627 -37.8518 0 0 0 -1.22343 -8.54754 -0.486485 8.90045 12.3548 -42.1763 0 0 0 
-2.51695e-05 -5.65681e-05 -0.00251445 2.78893 4.39855 -5.16218 -3.68708 -2.84746 5.78664 0 0 0 82.0313 4.85167 8.71009 1.53755 21.5405 0.762341 0 0 0 -77.7318 -3.39864 13.2759 -7.0607e-07 -23.2716 -1.59798e-06 0 0 0 0.219186 -6.66329 0.661633 8.48448 10.9292 -38.6855 0 0 0 -0.945455 -7.72819 -0.929279 9.21218 10.974 -41.0885 0 4.26887e-07 0 
-3.2177e-05 -5.7374e-05 -0.00251549 2.94909 4.63327 -4.81659 -3.5724 -3.05842 6.21417 9.90041e-17 -1.06722e-07 -1.06305e-07 82.5966 5.19426 8.61974 2.16476 21.1335 1.30039 0 -4.26887e-07 0 -77.4378 -3.50385 16.2345 -1.1652e-05 -23.5311 2.42691e-06 0 0 0 0.555514 12.2419 0.11322 -22.1052 -10.9382 -32.3375 0 0 0 -0.864513 -2.3432 -1.52404 1.82579 4.91908 -41.8985 0 0 0 
-3.86092e-05 -5.99724e-05 -0.00251739 3.18025 4.48736 -4.51841 -3.40372 -2.81362 6.5194 0 0 0 82.7814 5.44851 8.44791 2.48954 20.4461 1.58595 0 0 0 -78.0884 -3.1146 13.7604 1.11395e-05 -24.7972 -4.1972e-06 0 0 0 0.436189 13.0962 -0.361219 -22.5344 -12.7089 -31.8782 0 0 3.41509e-06 -0.434525 -6.7215 -2.4899 9.64931 9.18874 -39.4008 0 0 0 
-4.77244e-05 -6.12406e-05 -0.00251957 3.51986 4.31238 -4.17462 -3.74359 -2.61419 7.19538 0 0 0 83.3802 6.04572 8.35596 3.67569 21.0444 2.28702 0 0 0 -77.3793 -3.16369 13.2334 9.6252e-06 -26.0005 -3.97466e-06 0 0 0 0.379509 13.9788 -0.831775 -22.4937 -13.9856 -32.657 0 0 0 -0.0981745 -4.37606 -3.88197 7.15742 6.06464 -38.539 0 0 0 
-5.08644e-05 -6.12406e-05 -0.00252045 3.56932 4.14325 -4.04383 -3.82619 -2.43332 7.37718 0 0 1.0422e-10 83.4 6.06031 8.29136 3.58954 21.4402 2.30183 0 0 0 -77.0537 -3.25131 13.288 5.31486e-06 -25.9876 -2.97885e-06 0 0 0 0.540322 15.0978 -1.13717 -23.5174 -15.0147 -32.2906 0 0 0 0.202772 -4.46064 -4.1522 7.45543 5.84194 -38.5693 0 0 0 
-5.71178e-05 -6.12406e-05 -0.00252057 3.40405 4.11681 -3.90759 -3.41073 -2.47684 7.86521 3.33505e-09 -1.06722e-07 -1.0422e-10 83.7352 6.70255 8.30451 1.39735 20.9876 1.67311 0 0 0 -76.4603 -3.54447 13.6738 9.51362e-06 -26.4266 -2.23373e-06 0 0 0 1.24193 15.4278 -1.42477 -23.9727 -15.4068 -31.8437 0 0 0 0.0984023 -6.221 -4.70774 10.8375 6.86035 -37.8913 -8.53774e-07 4.26887e-07 3.33505e-09 
-6.02888e-05 -5.83843e-05 -0.00252057 3.32226 3.90764 -3.9167 -3.06209 -2.31391 8.27626 0 0 0 83.2414 7.16704 8.23173 0.973691 21.3151 1.45771 0 0 0 -76.4709 -3.65847 12.7571 -4.57053e-07 -26.8713 -1.64641e-06 0 0 0 1.93666 14.7413 -1.57578 -23.2986 -16.6534 -30.7123 8.53774e-07 3.97569e-16 -5.33608e-08 -0.927584 -8.6287 -5.16809 16.9778 6.31289 -34.6043 -1.98785e-16 4.26887e-07 -5.33608e-08 
-6.21803e-05 -5.5452e-05 -0.00252057 3.16727 3.96994 -3.85022 -2.52095 -2.43306 8.6931 0 0 0 82.2267 7.64434 8.06785 0.287957 21.4102 0.993087 0 0 0 -76.8667 -4.15529 10.8567 -5.64214e-06 -26.8295 1.34568e-06 0 0 0 2.25245 14.0277 -2.05032 -24.0677 -14.6099 -29.6606 0 0 0 -2.4096 -12.5246 -5.93776 22.8322 9.01869 -32.1446 0 0 0 
-6.35573e-05 -5.47947e-05 -0.0025191 3.00394 3.59135 -3.94842 -2.36008 -2.24457 8.87235 0 0 0 82.2059 7.99743 8.23998 0.329528 21.3707 0.980594 0 0 0 -76.8833 -3.94329 7.59603 -7.23949e-06 -27.0013 -1.794e-08 0 0 0 2.58561 14.7807 -2.31519 -24.443 -13.9893 -30.9661 1.92099e-06 0 0 -2.74271 -32.7685 -6.52523 40.975 13.5348 -25.3695 0 0 0 
-6.35573e-05 -5.47601e-05 -0.00251748 3.04876 2.92806 -3.94174 -2.40953 -1.89295 8.68642 5.00258e-08 3.33505e-09 -4.16882e-10 82.0771 8.02774 8.55779 0.509438 21.3414 0.973333 0 0 0 -76.4467 -3.40746 4.83094 -7.94849e-07 -27.4735 -3.32135e-06 0 0 0 2.41174 12.3917 -2.21125 -21.3848 -12.2319 -32.5204 0 0 0 10.1074 -72.1948 -17.4917 58.7959 -3.3591 3.9724 0 0 0 
-6.35573e-05 -5.34857e-05 -0.00251515 2.41798 2.22427 -3.89586 -1.71602 -1.84416 8.6341 0 0 0 81.6661 8.16281 9.09266 0.335751 21.8598 0.788695 0 0 0 -75.5729 -3.32488 5.56933 -7.44297e-07 -27.174 -1.57682e-06 0 0 0 2.79551 12.8018 -2.12021 -20.5727 -11.939 -35.0318 0 0 5.33609e-08 124.269 -83.3501 -129.942 51.2679 -18.3532 23.3979 0 0 0 
-6.07093e-05 -5.17146e-05 -0.00251294 1.81004 1.83072 -3.91569 -1.38055 -2.13182 8.46408 0 0 0 81.3099 8.0946 12.3799 4.37701e-06 22.514 -2.61089e-06 0 0 0 -74.5566 -3.0019 6.12789 -4.95982e-06 -26.987 2.94617e-06 0 0 0 3.49296 12.4949 -1.94439 -20.6085 -11.021 -35.1441 0 0 0 136.354 -82.1764 -141.286 48.4988 -21.344 26.5524 0 0 0 
